<svg xmlns="http://www.w3.org/2000/svg" width="399" height="252" fill="none" viewBox="0 0 399 252">
  <path fill="url(#a)" d="M38.915 251.042c-4.504 1.262-6.927 1.292-11.028 0-9.235-17.836-15.068-31.542-19.55-46.914C3.858 188.755 2.32 169.95.82 150.725S-.18 105 2.825 85.843C5.829 66.687 8.319 64 13.35 50.408 18.382 36.816 24.82 27.5 32.398 20.463c7.58-7.038 8.92-6.463 12.03-7.986C47.538 10.954 131.951.918 199.82 0v235.57c-19.048 0-31.74-.919-47.62-2.994-15.88-2.076-43.88-11.076-49.624-14.973-5.745-3.897-6.756-5.103-9.524-11.479-2.769-6.376-2.232-25.624-4.01-29.446-1.779-3.823-28.948-14.77-33.585-14.474-4.637.296-6.405.195-8.521 2.495-2.116 2.301-4.907 7.151-4.512 13.476.396 6.325 18.193 49.41 17.544 53.402-.648 3.993-2.945 6.899-7.518 10.481-4.916 3.681-7.831 5.671-13.534 8.984Z"/>
  <path fill="#fff" d="M129.819 27h70v76h-70z"/>
  <path fill="url(#b)" d="M359.223 251.042c4.504 1.262 6.926 1.292 11.028 0 9.235-17.836 15.068-31.542 19.549-46.914 4.481-15.373 6.019-34.178 7.519-53.403s1-45.725-2.005-64.882c-3.005-19.156-5.495-21.843-10.527-35.435-5.031-13.592-11.468-22.908-19.047-29.945-7.58-7.038-8.921-6.463-12.031-7.986C350.6 10.954 266.187.918 198.319 0v235.57c19.048 0 31.739-.919 47.62-2.994 15.88-2.076 43.88-11.076 49.624-14.973 5.745-3.897 6.756-5.103 9.524-11.479 2.768-6.376 2.232-25.624 4.01-29.446 1.779-3.823 28.947-14.77 33.585-14.474 4.637.296 6.405.195 8.521 2.495 2.116 2.301 4.907 7.151 4.511 13.476-.395 6.325-18.192 49.41-17.544 53.402.649 3.993 2.946 6.899 7.519 10.481 4.916 3.681 7.831 5.671 13.534 8.984Z"/>
  <path fill="#fff" d="M268.319 27h-70v76h70z"/>
  <defs>
    <linearGradient id="a" x1="199.819" x2="-.181" y1="0" y2="252" gradientUnits="userSpaceOnUse">
      <stop stop-color="#3E3E3E"/>
      <stop offset="1"/>
    </linearGradient>
    <linearGradient id="b" x1="198.319" x2="398.319" y1="0" y2="252" gradientUnits="userSpaceOnUse">
      <stop stop-color="#3E3E3E"/>
      <stop offset="1"/>
    </linearGradient>
  </defs>
</svg>
