<svg xmlns="http://www.w3.org/2000/svg" width="128" height="128" fill="none" viewBox="0 0 128 128">
  <path fill="#24BEF8" d="M64 0H8.093v86.416L64 128V0Z"/>
  <path fill="#1699F3" d="M64 0h55.907v86.416L64 128V0Z"/>
  <path fill="#21283B" d="M64 8.954H16.882v72.828L64 116.827V8.954Z"/>
  <path fill="#0D0D15" d="M64 8.954h47.117v72.828L64 116.827V8.954Z"/>
  <path fill="#fff" d="M100.423 19.382H27.584v20.02l36.42 27.474-36.42-16.293v25.984l36.42 27.261 36.419-27.261v-7.561l-36.42-28.22 36.42 17.251V19.382Z"/>
  <path fill="#D3DEE7" d="M100.424 19.382H34.081v16.825l29.923 22.895v7.774L34.081 53.489v19.99l35.187 26.409 31.156-23.322v-7.56l-36.42-28.22v-7.72l36.42 17.517V19.382Z"/>
</svg>
